<svg xmlns="http://www.w3.org/2000/svg" version="1.1" xmlns:xlink="http://www.w3.org/1999/xlink" xmlns:svgjs="http://svgjs.com/svgjs" width="1400" height="572" preserveAspectRatio="none" viewBox="0 0 1400 572"><g mask="url(&quot;#SvgjsMask3426&quot;)" fill="none"><rect width="1400" height="572" x="0" y="0" fill="url(#SvgjsLinearGradient3427)"></rect><path d="M1400 0L1038.77 0L1400 186.3z" fill="rgba(255, 255, 255, .1)"></path><path d="M1038.77 0L1400 186.3L1400 368.69L974.84 0z" fill="rgba(255, 255, 255, .075)"></path><path d="M974.8399999999999 0L1400 368.69L1400 432.07L595.9599999999999 0z" fill="rgba(255, 255, 255, .05)"></path><path d="M595.96 0L1400 432.07L1400 523.14L312.25000000000006 0z" fill="rgba(255, 255, 255, .025)"></path><path d="M0 572L25.86 572L0 520z" fill="rgba(0, 0, 0, .1)"></path><path d="M0 520L25.86 572L35.91 572L0 355.08000000000004z" fill="rgba(0, 0, 0, .075)"></path><path d="M0 355.08000000000004L35.91 572L246.42 572L0 353.08000000000004z" fill="rgba(0, 0, 0, .05)"></path><path d="M0 353.08000000000004L246.42 572L673.38 572L0 305.97z" fill="rgba(0, 0, 0, .025)"></path></g><defs><mask id="SvgjsMask3426"><rect width="1400" height="572" fill="#ffffff"></rect></mask><linearGradient x1="85.21%" y1="-36.19%" x2="14.79%" y2="136.19%" gradientUnits="userSpaceOnUse" id="SvgjsLinearGradient3427"><stop stop-color="rgba(63, 160, 19, 1)" offset="0"></stop><stop stop-color="rgba(53, 160, 19, 1)" offset="0.28"></stop><stop stop-color="rgba(255, 255, 255, 1)" offset="1"></stop></linearGradient></defs></svg>